# AST/ASF file generated using VICON BodyLanguage
# -----------------------------------------------
:version 1.10
:name VICON
:units
  mass 1.0
  length 0.45
  angle deg
:documentation
   .ast/.asf automatically generated from VICON data using
   VICON BodyBuilder and BodyLanguage model FoxedUp or BRILLIANT.MOD
:root
   order TX TY TZ RX RY RZ
   axis XYZ
   position 0 0 0  
   orientation 0 0 0 
:bonedata
  begin
     id 1 
     name lhipjoint
     direction 0.567725 -0.736092 0.368589 
     length 2.42353 
     axis 0 0 0  XYZ
  end
  begin
     id 2 
     name lfemur
     direction 0.34202 -0.939693 0  
     length 7.24894  
     axis 0 0 20  XYZ
    dof rx ry rz
    limits (-160.0 20.0)
           (-70.0 70.0)
           (-60.0 70.0)
  end
  begin
     id 3 
     name ltibia
     direction 0.34202 -0.939693 0   
     length 7.6997   
     axis 0 0 20   XYZ
    dof rx
    limits (-10.0 170.0)
  end
  begin
     id 4 
     name lfoot
     direction 0.100767 -0.276854 0.955614   
     length 2.37556   
     axis -90 7.62852e-016 20   XYZ
    dof rx rz
    limits (-45.0 90.0)
           (-70.0 20.0)
  end
  begin
     id 5 
     name ltoes
     direction 1.53592e-011 -4.21894e-011 1   
     length 1.18363   
     axis -90 7.62852e-016 20   XYZ
    dof rx
    limits (-90.0 20.0)
  end
  begin
     id 6 
     name rhipjoint
     direction -0.556459 -0.742938 0.372017   
     length 2.4012  
     axis 0 0 0  XYZ 
  end
  begin
     id 7 
     name rfemur
     direction -0.34202 -0.939693 0   
     length 7.5119   
     axis 0 0 -20   XYZ
    dof rx ry rz
    limits (-160.0 20.0)
           (-70.0 70.0)
           (-70.0 60.0)
  end
  begin
     id 8 
     name rtibia
     direction -0.34202 -0.939693 0   
     length 7.50155   
     axis 0 0 -20   XYZ
    dof rx
    limits (-10.0 170.0)
 end
 begin
     id 9 
     name rfoot
     direction -0.118427 -0.325376 0.938139   
     length 2.32487  
     axis -90 -7.62852e-016 -20   XYZ
    dof rx rz
    limits (-45.0 90.0)
           (-20.0 70.0)
  end
  begin
     id 10 
     name rtoes
     direction -1.53525e-011 -4.21868e-011 1   
     length 1.15233   
     axis -90 -7.62852e-016 -20   XYZ
    dof rx
    limits (-90.0 20.0)
  end
  begin
     id 11 
     name lowerback
     direction 0.0287568 0.999577 -0.00434502   
     length 2.15243   
     axis 0 0 0   XYZ
    dof rx ry rz
    limits (-20.0 45.0)
           (-30.0 30.0)
           (-30.0 30.0)
  end
  begin
     id 12 
     name upperback
     direction 0.0294009 0.99956 0.00404628   
     length 2.15427   
     axis 0 0 0   XYZ
    dof rx ry rz
    limits (-20.0 45.0)
           (-30.0 30.0)
           (-30.0 30.0)
  end
  begin
     id 13 
     name thorax
     direction 0.0151014 0.999868 0.0059419   
     length 2.14898   
     axis 0 0 0   XYZ
    dof rx ry rz
    limits (-20.0 45.0)
           (-30.0 30.0)
           (-30.0 30.0)
  end
  begin
     id 14 
     name lowerneck
     direction -0.0249197 0.989906 0.139515   
     length 1.6861   
     axis 0 0 0   XYZ
    dof rx ry rz
    limits (-20.0 45.0)
           (-30.0 30.0)
           (-30.0 30.0)
  end
  begin
     id 15 
     name upperneck
     direction 0.0438463 0.988795 -0.142693   
     length 1.71276   
     axis 0 0 0   XYZ
    dof rx ry rz
    limits (-20.0 45.0)
           (-30.0 30.0)
           (-30.0 30.0)
  end
  begin
     id 16
     name head
     direction 0.0148499 0.997845 -0.0639186  
     length 1.7209  
     axis 0 0 0   XYZ
    dof rx ry rz
    limits (-20.0 45.0)
           (-30.0 30.0)
           (-30.0 30.0)
  end
  begin
     id 17 
     name lclavicle
     direction 0.940298 0.323464 -0.105876  
     length 3.9048  
     axis 0 0 0   XYZ
    dof ry rz
    limits (-20.0 10.0)
           (0.0 20.0)
  end
  begin
     id 18 
     name lhumerus
     direction 1 -4.48954e-011 -4.9675e-028   
     length 4.6851   
     axis 180 -30 -90   XYZ
    dof rx ry rz
    limits (-60.0 90.0)
           (-90.0 90.0)
           (-90.0 90.0)
  end
  begin
     id 19
     name lradius
     direction 1 -4.48992e-011 -1.03359e-026   
     length 3.39626   
     axis 180 -30 -90   XYZ
    dof rx
    limits (-10.0 170.0)
  end
  begin
     id 20
     name lwrist
     direction 1 -4.48906e-011 -1.67336e-026   
     length 1.69813   
     axis 9.90442e-015 90 90   XYZ
    dof ry
    limits (-180.0 0.0)
 end
  begin
     id 21 
     name lhand
     direction 1 -4.49006e-011 -3.34673e-026   
     length 0.486078   
     axis 2.1355e-014 90 90   XYZ
    dof rx rz
    limits (-90.0 90.0)
           (-45.0 45.0)
  end
  begin
     id 22 
     name lfingers
     direction 1 -4.48992e-011 -6.69345e-026   
     length 0.391889   
     axis 4.27099e-014 90 90   XYZ
    dof rx
    limits (0.0 90.0)
  end
  begin
     id 23
     name lthumb
     direction 0.707107 -6.34926e-011 0.707107   
     length 0.562676   
     axis -90 45 2.85299e-015   XYZ
    dof rx rz
    limits (-45.0 45.0)
           (-45.0 45.0)
  end
  begin
     id 24 
     name rclavicle
     direction -0.882459 0.414895 -0.221648   
     length 3.44646  
     axis 0 0 0   XYZ 
    dof ry rz
    limits (-10.0 20.0)
           (-20.0 0.0)
  end
  begin
     id 25 
     name rhumerus
     direction -1 -4.48962e-011 -2.37984e-027  
     length 5.55576   
     axis 180 30 90   XYZ
    dof rx ry rz
    limits (-90.0 60.0)
           (-90.0 90.0)
           (-90.0 90.0)
  end
  begin
     id 26 
     name rradius
     direction -1 -4.48982e-011 -6.86791e-027   
     length 3.32774   
     axis 180 30 90   XYZ
    dof rx
    limits (-10.0 170.0)
  end
  begin
     id 27 
     name rwrist
     direction -1 -4.48961e-011 -1.67336e-026   
     length 1.66387   
     axis 9.90442e-015 -90 -90   XYZ
    dof ry
    limits (-180.0 0.0)
  end
  begin
     id 28
     name rhand
     direction -1 -4.4897e-011 -3.34673e-026   
     length 0.507628   
     axis 2.1355e-014 -90 -90   XYZ
    dof rx rz
    limits (-90.0 90.0)
           (-45.0 45.0)
  end
  begin
     id 29
     name rfingers
     direction -1 -4.48854e-011 -6.69345e-026   
     length 0.409263   
     axis 4.27099e-014 -90 -90   XYZ
    dof rx
    limits (0.0 90.0)
  end
  begin
     id 30
     name rthumb
     direction -0.707107 -6.34913e-011 0.707107   
     length 0.587622   
     axis -90 -45 -2.85299e-015   XYZ
    dof rx rz
    limits (-45.0 45.0)
           (-45.0 45.0)
  end
:hierarchy
  begin
    root lhipjoint rhipjoint lowerback
    lhipjoint lfemur
    lfemur ltibia
    ltibia lfoot
    lfoot ltoes
    rhipjoint rfemur
    rfemur rtibia
    rtibia rfoot
    rfoot rtoes
    lowerback upperback
    upperback thorax
    thorax lowerneck lclavicle rclavicle
    lowerneck upperneck
    upperneck head
    lclavicle lhumerus
    lhumerus lradius
    lradius lwrist
    lwrist lhand lthumb
    lhand lfingers
    rclavicle rhumerus
    rhumerus rradius
    rradius rwrist
    rwrist rhand rthumb
    rhand rfingers
  end

#!OML:ASF E:\motion texture\Top Level 1\Subject 1\Session 1\male.ASF
:FULLY-SPECIFIED
:DEGREES
81
root 21.6927 17.9189 6.20017 74.8004 -81.1158 -69.9981
lowerback -0.979248 -1.39093 6.48555
upperback -2.48485 -1.88808 3.59304
thorax -2.10083 -1.07549 0.0932812
lowerneck -3.34178 -14.6311 -17.3434
upperneck 12.8336 -20.5227 11.8479
head 7.49951 -10.1726 4.48547
rclavicle 1.32037e-014 -1.90833e-014
rhumerus -19.5005 3.96985 -82.6596
rradius 100.16
rwrist -10.2348
rhand -22.528 -30.5661
rfingers 7.12502
rthumb 3.89892 -60.5102
lclavicle 1.32037e-014 -1.90833e-014
lhumerus -19.9247 5.67121 83.5859
lradius 98.7904
lwrist 23.1384
lhand -5.65413 23.5182
lfingers 7.12502
lthumb 20.1648 52.4916
rfemur -1.97556 4.5914 33.2116
rtibia 11.9552
rfoot -10.6454 -15.8266
rtoes 12.3345
lfemur -30.3874 4.13382 -6.0586
ltibia 49.698
lfoot -8.36456 4.89023
ltoes -16.7705
82
root 21.5556 17.9081 6.19786 76.4442 -81.1568 -71.5266
lowerback -1.07071 -1.31693 6.61672
upperback -2.52564 -1.79633 3.53041
thorax -2.09395 -1.03353 -0.046663
lowerneck -3.26366 -14.6224 -17.3976
upperneck 12.8397 -20.5258 11.8733
head 7.49736 -10.179 4.50568
rclavicle 7.2339e-015 -4.4329e-014
rhumerus -19.49 4.92336 -83.1189
rradius 99.5486
rwrist -9.58246
rhand -22.5361 -30.0763
rfingers 7.12502
rthumb 3.89105 -60.0205
lclavicle 7.2339e-015 -4.4329e-014
lhumerus -20.5195 6.68571 83.5012
lradius 97.9122
lwrist 24.444
lhand -5.87982 24.1864
lfingers 7.12502
lthumb 19.9479 53.1825
rfemur -1.53433 4.72741 33.3357
rtibia 11.8603
rfoot -10.9515 -15.8139
rtoes 11.9101
lfemur -30.6707 4.23363 -5.97778
ltibia 47.5929
lfoot -8.52968 5.26866
ltoes -16.9484
83
root 21.4184 17.8966 6.1968 78.22 -81.2058 -73.1636
lowerback -1.18632 -1.23303 6.73081
upperback -2.56573 -1.69412 3.47007
thorax -2.07097 -0.985712 -0.175466
lowerneck -3.19528 -14.6151 -17.4614
upperneck 12.8403 -20.5318 11.921
head 7.49904 -10.1854 4.533
rclavicle -2.55314e-014 -5.76476e-015
rhumerus -19.4779 5.81617 -83.552
rradius 98.8555
rwrist -9.06606
rhand -22.4483 -29.6549
rfingers 7.12502
rthumb 3.97584 -59.5975
lclavicle -2.55314e-014 -5.76476e-015
lhumerus -21.1193 7.64242 83.4207
lradius 96.9966
lwrist 25.8382
lhand -6.1735 24.8864
lfingers 7.12502
lthumb 19.6656 53.9117
rfemur -1.14365 4.84669 33.431
rtibia 11.8109
rfoot -11.2626 -15.7625
rtoes 11.4621
lfemur -30.8799 4.30504 -5.88881
ltibia 45.3019
lfoot -8.56372 5.63389
ltoes -17.1555
84
root 21.2805 17.8843 6.19668 80.1286 -81.2591 -74.9133
lowerback -1.30783 -1.14237 6.82762
upperback -2.61763 -1.58317 3.41194
thorax -2.05522 -0.933708 -0.292142
lowerneck -3.12394 -14.6063 -17.5264
upperneck 12.8421 -20.5387 11.9786
head 7.50201 -10.192 4.56366
rclavicle -1.13897e-014 5.54609e-014
rhumerus -19.4845 6.64552 -83.9663
rradius 98.0845
rwrist -8.72978
rhand -22.261 -29.3024
rfingers 7.12502
rthumb 4.15676 -59.2416
lclavicle -1.13897e-014 5.54609e-014
lhumerus -21.7417 8.53592 83.3401
lradius 96.0537
lwrist 27.3068
lhand -6.56979 25.6647
lfingers 7.12502
lthumb 19.2845 54.7285
rfemur -0.793177 4.96146 33.5041
rtibia 11.7996
rfoot -11.5806 -15.6913
rtoes 10.9777
lfemur -31.0071 4.33903 -5.78383
ltibia 42.8218
lfoot -8.45999 5.98145
ltoes -17.3551
85
root 21.142 17.8714 6.19753 82.1653 -81.3136 -76.7764
lowerback -1.44775 -1.044 6.91194
upperback -2.66548 -1.46426 3.35353
thorax -2.02349 -0.877057 -0.402523
lowerneck -3.06111 -14.6012 -17.5903
upperneck 12.8377 -20.5518 12.054
head 7.5073 -10.2002 4.59822
rclavicle -1.67461e-014 2.34566e-014
rhumerus -19.4835 7.40528 -84.3611
rradius 97.2323
rwrist -8.59982
rhand -22.021 -29.0335
rfingers 7.12502
rthumb 4.38851 -58.968
lclavicle -1.67461e-014 2.34566e-014
lhumerus -22.3635 9.36828 83.2546
lradius 95.1017
lwrist 28.8895
lhand -7.02078 26.5442
lfingers 7.12502
lthumb 18.8508 55.6507
rfemur -0.471989 5.07236 33.5567
rtibia 11.8186
rfoot -11.9027 -15.5987
rtoes 10.4629
lfemur -31.0442 4.31843 -5.65668
ltibia 40.1515
lfoot -8.19734 6.316
ltoes -17.56
86
root 21.0025 17.8578 6.19923 84.2562 -81.3736 -78.6823
lowerback -1.59988 -0.941546 6.972
upperback -2.71611 -1.34104 3.29294
thorax -1.98633 -0.817715 -0.501583
lowerneck -2.98678 -14.5995 -17.6414
upperneck 12.8182 -20.5718 12.1348
head 7.50596 -10.2114 4.63291
rclavicle -7.93275e-015 2.20651e-014
rhumerus -19.4873 8.08372 -84.7361
rradius 96.303
rwrist -8.68485
rhand -21.7201 -28.8388
rfingers 7.12502
rthumb 4.67901 -58.7671
lclavicle -7.93275e-015 2.20651e-014
lhumerus -22.9768 10.1398 83.1715
lradius 94.1403
lwrist 30.5325
lhand -7.60706 27.5024
lfingers 7.12502
lthumb 18.2869 56.6628
rfemur -0.167751 5.17886 33.5821
rtibia 11.8544
rfoot -12.2257 -15.4961
rtoes 9.92799
lfemur -30.9897 4.2148 -5.51213
ltibia 37.2966
lfoot -7.75967 6.64341
ltoes -17.7371
87
root 20.8619 17.8432 6.20193 86.4062 -81.4307 -80.6382
lowerback -1.76123 -0.835845 7.01827
upperback -2.76819 -1.21445 3.23155
thorax -1.94444 -0.756357 -0.593549
lowerneck -2.90178 -14.6041 -17.6771
upperneck 12.7813 -20.6017 12.2157
head 7.49704 -10.2272 4.66529
rclavicle -1.1559e-014 1.25234e-014
rhumerus -19.485 8.67017 -85.0941
rradius 95.291
rwrist -8.95023
rhand -21.3944 -28.7267
rfingers 7.12502
rthumb 4.99358 -58.6479
lclavicle -1.1559e-014 1.25234e-014
lhumerus -23.5987 10.8495 83.0797
lradius 93.1945
lwrist 32.2159
lhand -8.25595 28.5414
lfingers 7.12502
lthumb 17.6626 57.7592
rfemur 0.123738 5.2723 33.5869
rtibia 11.902
rfoot -12.5432 -15.3769
rtoes 9.35779
lfemur -30.8479 4.00841 -5.33647
ltibia 34.2722
lfoot -7.14753 6.98272
ltoes -17.8962
88
root 20.7201 17.8278 6.20541 88.5764 -81.4786 -82.6099
lowerback -1.93619 -0.72629 7.05332
upperback -2.8132 -1.0845 3.16957
thorax -1.88665 -0.692511 -0.679774
lowerneck -2.81424 -14.6205 -17.6913
upperneck 12.7193 -20.6466 12.2972
head 7.47962 -10.2492 4.69333
rclavicle 2.32221e-014 -3.47873e-014
rhumerus -19.4673 9.14808 -85.4281
rradius 94.2052
rwrist -9.38666
rhand -20.9827 -28.7206
rfingers 7.12502
rthumb 5.39109 -58.6321
lclavicle 2.32221e-014 -3.47873e-014
lhumerus -24.1809 11.504 82.9955
lradius 92.239
lwrist 33.8801
lhand -8.92836 29.6123
lfingers 7.12502
lthumb 17.0154 58.8871
rfemur 0.413016 5.3557 33.5806
rtibia 11.9537
rfoot -12.855 -15.2511
rtoes 8.76128
lfemur -30.6247 3.67248 -5.11591
ltibia 31.1079
lfoot -6.37339 7.34041
ltoes -17.9743
89
root 20.5769 17.8113 6.20961 90.7244 -81.5118 -84.5573
lowerback -2.12395 -0.616481 7.07777
upperback -2.85151 -0.955907 3.11185
thorax -1.81407 -0.628566 -0.755448
lowerneck -2.711 -14.6454 -17.7007
upperneck 12.6306 -20.7045 12.3888
head 7.45355 -10.2773 4.72352
rclavicle -3.15105e-015 1.41137e-014
rhumerus -19.4269 9.52356 -85.7366
rradius 93.0565
rwrist -9.96886
rhand -20.4611 -28.8715
rfingers 7.12502
rthumb 5.89469 -58.7695
lclavicle -3.15105e-015 1.41137e-014
lhumerus -24.7414 12.1132 82.9158
lradius 91.2995
lwrist 35.5056
lhand -9.56755 30.6998
lfingers 7.12502
lthumb 16.4001 60.0265
rfemur 0.701633 5.41373 33.5676
rtibia 12.0125
rfoot -13.1475 -15.1198
rtoes 8.10118
lfemur -30.3341 3.19206 -4.84015
ltibia 27.8509
lfoot -5.49403 7.74136
ltoes -17.9614
90
root 20.4322 17.7938 6.21466 92.8302 -81.5251 -86.4631
lowerback -2.32312 -0.509174 7.09813
upperback -2.88294 -0.832305 3.06098
thorax -1.72776 -0.56648 -0.82137
lowerneck -2.59752 -14.6778 -17.7097
upperneck 12.5217 -20.7731 12.4885
head 7.42182 -10.3107 4.75566
rclavicle -6.00547e-015 3.47873e-015
rhumerus -19.3679 9.79578 -86.0218
rradius 91.8537
rwrist -10.6889
rhand -19.8379 -29.1776
rfingers 7.12502
rthumb 6.49633 -59.058
lclavicle -6.00547e-015 3.47873e-015
lhumerus -25.2818 12.6901 82.8391
lradius 90.3912
lwrist 37.0889
lhand -10.1442 31.7967
lfingers 7.12502
lthumb 15.8448 61.1684
rfemur 0.996453 5.45499 33.5584
rtibia 12.0763
rfoot -13.425 -14.9978
rtoes 7.38942
lfemur -29.9939 2.55585 -4.49949
ltibia 24.5606
lfoot -4.60385 8.2163
ltoes -17.8421
91
root 20.2855 17.7752 6.22083 94.8791 -81.519 -88.3175
lowerback -2.52805 -0.404865 7.1151
upperback -2.90624 -0.713842 3.01913
thorax -1.6297 -0.50634 -0.875618
lowerneck -2.49013 -14.7188 -17.7177
upperneck 12.4089 -20.8523 12.5894
head 7.39169 -10.3486 4.78585
rclavicle -6.17397e-015 -1.03368e-014
rhumerus -19.2922 9.97661 -86.2782
rradius 90.6167
rwrist -11.558
rhand -19.1523 -29.6677
rfingers 7.12502
rthumb 7.15817 -59.5266
lclavicle -6.17397e-015 -1.03368e-014
lhumerus -25.8145 13.2395 82.7675
lradius 89.5395
lwrist 38.6402
lhand -10.6487 32.8831
lfingers 7.12502
lthumb 15.3589 62.2926
rfemur 1.29894 5.46335 33.549
rtibia 12.1517
rfoot -13.6901 -14.872
rtoes 6.62428
lfemur -29.6238 1.77571 -4.09949
ltibia 21.3081
lfoot -3.80521 8.79033
ltoes -17.6547
